# xmcd
#
# Track frame offsets:
#	150
#	11762
#	23595
#	40208
#	57833
#
# Disc length: 1020 seconds
#
# Revision: 1
# Processed by: cddbd v1.5.2PL0 Copyright (c) Steve Scherf et al.
# Submitted via: audiograbber 1.83.01
#
DISCID=3303fa05
DTITLE=Concrete - Zementer
DYEAR=2008
DGENRE=Death Metal
TTITLE0=In opposites united
TTITLE1=Hunter and gatherer
TTITLE2=Children on the playground of evil
TTITLE3=Don't disturb my circles
TTITLE4=Trip
EXTD=
EXTT0=
EXTT1=
EXTT2=
EXTT3=
EXTT4=
PLAYORDER=
